<svg width="227" height="46" viewBox="0 0 227 46" fill="none" xmlns="http://www.w3.org/2000/svg">
<path d="M29.5658 9.08H19.7738V35H10.4138V9.08H0.57375V0.919998H29.5658V9.08ZM47.8193 35.288C45.2273 35.288 42.8753 34.792 40.7633 33.8C38.6513 32.808 36.8433 31.512 35.3393 29.912C33.8353 28.28 32.6673 26.424 31.8353 24.344C31.0033 22.264 30.5873 20.12 30.5873 17.912C30.5873 15.672 31.0193 13.512 31.8833 11.432C32.7473 9.352 33.9473 7.528 35.4833 5.96C37.0513 4.36 38.8913 3.096 41.0033 2.168C43.1473 1.208 45.4833 0.727998 48.0113 0.727998C50.6033 0.727998 52.9553 1.224 55.0673 2.216C57.1793 3.208 58.9873 4.52 60.4913 6.152C61.9953 7.784 63.1473 9.64 63.9473 11.72C64.7793 13.8 65.1953 15.928 65.1953 18.104C65.1953 20.344 64.7633 22.504 63.8993 24.584C63.0353 26.632 61.8353 28.456 60.2993 30.056C58.7633 31.624 56.9233 32.888 54.7793 33.848C52.6673 34.808 50.3473 35.288 47.8193 35.288ZM40.0913 18.008C40.0913 19.16 40.2513 20.28 40.5713 21.368C40.8913 22.424 41.3713 23.368 42.0113 24.2C42.6513 25.032 43.4513 25.704 44.4113 26.216C45.4033 26.728 46.5713 26.984 47.9153 26.984C49.2593 26.984 50.4273 26.728 51.4193 26.216C52.4113 25.672 53.2113 24.984 53.8193 24.152C54.4593 23.288 54.9233 22.312 55.2113 21.224C55.5313 20.136 55.6913 19.032 55.6913 17.912C55.6913 16.76 55.5313 15.656 55.2113 14.6C54.8913 13.512 54.3953 12.568 53.7233 11.768C53.0833 10.936 52.2673 10.28 51.2753 9.8C50.3153 9.288 49.1793 9.032 47.8673 9.032C46.5233 9.032 45.3553 9.288 44.3633 9.8C43.4033 10.312 42.6033 11 41.9633 11.864C41.3233 12.696 40.8433 13.656 40.5233 14.744C40.2353 15.8 40.0913 16.888 40.0913 18.008ZM69.1624 35V0.919998H82.2664C85.0824 0.919998 87.5624 1.368 89.7064 2.264C91.8504 3.16 93.6424 4.376 95.0824 5.912C96.5224 7.448 97.6104 9.256 98.3464 11.336C99.0824 13.384 99.4504 15.576 99.4504 17.912C99.4504 20.504 99.0344 22.856 98.2024 24.968C97.4024 27.048 96.2504 28.84 94.7464 30.344C93.2424 31.816 91.4344 32.968 89.3224 33.8C87.2104 34.6 84.8584 35 82.2664 35H69.1624ZM89.9464 17.912C89.9464 16.6 89.7704 15.4 89.4184 14.312C89.0664 13.224 88.5544 12.296 87.8824 11.528C87.2424 10.76 86.4424 10.168 85.4824 9.752C84.5224 9.304 83.4504 9.08 82.2664 9.08H78.5224V26.84H82.2664C83.4824 26.84 84.5704 26.616 85.5304 26.168C86.4904 25.72 87.2904 25.096 87.9304 24.296C88.6024 23.496 89.0984 22.552 89.4184 21.464C89.7704 20.376 89.9464 19.192 89.9464 17.912ZM118.882 35.288C116.29 35.288 113.938 34.792 111.826 33.8C109.714 32.808 107.906 31.512 106.402 29.912C104.898 28.28 103.73 26.424 102.898 24.344C102.066 22.264 101.65 20.12 101.65 17.912C101.65 15.672 102.082 13.512 102.946 11.432C103.81 9.352 105.01 7.528 106.546 5.96C108.114 4.36 109.954 3.096 112.066 2.168C114.21 1.208 116.546 0.727998 119.074 0.727998C121.666 0.727998 124.018 1.224 126.13 2.216C128.242 3.208 130.05 4.52 131.554 6.152C133.058 7.784 134.21 9.64 135.01 11.72C135.842 13.8 136.258 15.928 136.258 18.104C136.258 20.344 135.826 22.504 134.962 24.584C134.098 26.632 132.898 28.456 131.362 30.056C129.826 31.624 127.986 32.888 125.842 33.848C123.73 34.808 121.41 35.288 118.882 35.288ZM111.154 18.008C111.154 19.16 111.314 20.28 111.634 21.368C111.954 22.424 112.434 23.368 113.074 24.2C113.714 25.032 114.514 25.704 115.474 26.216C116.466 26.728 117.634 26.984 118.978 26.984C120.322 26.984 121.49 26.728 122.482 26.216C123.474 25.672 124.274 24.984 124.882 24.152C125.522 23.288 125.986 22.312 126.274 21.224C126.594 20.136 126.754 19.032 126.754 17.912C126.754 16.76 126.594 15.656 126.274 14.6C125.954 13.512 125.458 12.568 124.786 11.768C124.146 10.936 123.33 10.28 122.338 9.8C121.378 9.288 120.242 9.032 118.93 9.032C117.586 9.032 116.418 9.288 115.426 9.8C114.466 10.312 113.666 11 113.026 11.864C112.386 12.696 111.906 13.656 111.586 14.744C111.298 15.8 111.154 16.888 111.154 18.008Z" fill="white"/>
<path d="M152.657 0.919998H161.249L165.041 35H155.537L155.201 28.328H147.041L143.921 35H134.369L152.657 0.919998ZM155.057 22.088L154.673 11.528L149.729 22.088H155.057ZM172.373 9.752H180.293L179.477 13.544C180.597 12.168 181.845 11.112 183.221 10.376C184.629 9.64 186.245 9.272 188.069 9.272C189.413 9.272 190.613 9.528 191.669 10.04C192.757 10.552 193.669 11.256 194.405 12.152C195.173 13.048 195.749 14.12 196.133 15.368C196.549 16.616 196.757 17.976 196.757 19.448C196.757 21.624 196.389 23.688 195.653 25.64C194.917 27.56 193.925 29.256 192.677 30.728C191.429 32.168 189.989 33.32 188.357 34.184C186.757 35.048 185.093 35.48 183.365 35.48C181.637 35.48 180.213 35.128 179.093 34.424C178.005 33.688 177.285 32.632 176.933 31.256L173.957 45.224H164.836L172.373 9.752ZM181.829 27.8C182.501 27.8 183.157 27.608 183.797 27.224C184.437 26.84 185.013 26.344 185.525 25.736C186.037 25.096 186.437 24.36 186.725 23.528C187.045 22.696 187.205 21.832 187.205 20.936C187.205 19.72 186.901 18.76 186.293 18.056C185.717 17.32 184.869 16.952 183.749 16.952C183.013 16.952 182.293 17.176 181.589 17.624C180.917 18.04 180.197 18.68 179.429 19.544L178.469 23.912C178.629 25.032 179.013 25.96 179.621 26.696C180.261 27.432 180.997 27.8 181.829 27.8ZM202.419 9.752H210.339L209.523 13.544C210.643 12.168 211.891 11.112 213.267 10.376C214.675 9.64 216.291 9.272 218.115 9.272C219.459 9.272 220.659 9.528 221.715 10.04C222.803 10.552 223.715 11.256 224.451 12.152C225.219 13.048 225.795 14.12 226.179 15.368C226.595 16.616 226.803 17.976 226.803 19.448C226.803 21.624 226.435 23.688 225.699 25.64C224.963 27.56 223.971 29.256 222.723 30.728C221.475 32.168 220.035 33.32 218.403 34.184C216.803 35.048 215.139 35.48 213.411 35.48C211.683 35.48 210.259 35.128 209.139 34.424C208.051 33.688 207.331 32.632 206.979 31.256L204.003 45.224H194.883L202.419 9.752ZM211.875 27.8C212.547 27.8 213.203 27.608 213.843 27.224C214.483 26.84 215.059 26.344 215.571 25.736C216.083 25.096 216.483 24.36 216.771 23.528C217.091 22.696 217.251 21.832 217.251 20.936C217.251 19.72 216.947 18.76 216.339 18.056C215.763 17.32 214.915 16.952 213.795 16.952C213.059 16.952 212.339 17.176 211.635 17.624C210.963 18.04 210.243 18.68 209.475 19.544L208.515 23.912C208.675 25.032 209.059 25.96 209.667 26.696C210.307 27.432 211.043 27.8 211.875 27.8Z" fill="#F9B531"/>
</svg>
