<svg width="25" height="23" viewBox="0 0 25 23" fill="none" xmlns="http://www.w3.org/2000/svg">
<path d="M5.49997 17L1.12054e-06 8L5.5 8L11 8L5.49997 17Z" fill="#103968"/>
<path fill-rule="evenodd" clip-rule="evenodd" d="M20.9999 11.5C20.9999 15.3576 17.8727 18.4848 14.0152 18.4848C11.9523 18.4848 10.0983 17.5905 8.81971 16.1686L5.89669 18.8998C7.90562 21.1026 10.799 22.4848 14.0152 22.4848C20.0819 22.4848 24.9999 17.5667 24.9999 11.5C24.9999 5.43328 20.0819 0.515228 14.0152 0.515228C9.13846 0.515228 5.004 3.69309 3.56963 8.09095H7.91737C9.11277 5.95732 11.3955 4.51523 14.0152 4.51523C17.8727 4.51523 20.9999 7.64242 20.9999 11.5Z" fill="#103968"/>
</svg>
