<svg width="16" height="16" viewBox="0 0 16 16" fill="none" xmlns="http://www.w3.org/2000/svg">
<path d="M13.5 7V4" stroke="black" stroke-linecap="round" stroke-linejoin="round"/>
<path d="M15 5.5H12" stroke="black" stroke-linecap="round" stroke-linejoin="round"/>
<path d="M10.5 1.5V3.5" stroke="black" stroke-linecap="round" stroke-linejoin="round"/>
<path d="M11.5 2.5H9.5" stroke="black" stroke-linecap="round" stroke-linejoin="round"/>
<path d="M13.5436 9.53755C12.562 9.81283 11.5247 9.82185 10.5384 9.56369C9.55211 9.30553 8.65229 8.78949 7.93137 8.06857C7.21045 7.34765 6.69442 6.44783 6.43626 5.46152C6.1781 4.47522 6.18712 3.43797 6.46239 2.4563C5.49456 2.72568 4.61419 3.24394 3.90898 3.95944C3.20377 4.67495 2.69833 5.56274 2.44301 6.53438C2.18769 7.50602 2.19139 8.52759 2.45375 9.49736C2.71611 10.4671 3.22797 11.3512 3.93835 12.0616C4.64872 12.772 5.53282 13.2838 6.50259 13.5462C7.47235 13.8086 8.49393 13.8123 9.46556 13.5569C10.4372 13.3016 11.325 12.7962 12.0405 12.091C12.756 11.3858 13.2743 10.5054 13.5436 9.53755Z" stroke="black" stroke-linecap="round" stroke-linejoin="round"/>
</svg>
