<?xml version="1.0" standalone="no"?>
<!DOCTYPE svg PUBLIC "-//W3C//DTD SVG 20010904//EN"
 "http://www.w3.org/TR/2001/REC-SVG-20010904/DTD/svg10.dtd">
<svg version="1.0" xmlns="http://www.w3.org/2000/svg"
 width="212.000000pt" height="208.000000pt" viewBox="0 0 212.000000 208.000000"
 preserveAspectRatio="xMidYMid meet">

<g transform="translate(0.000000,208.000000) scale(0.100000,-0.100000)"
fill="#FFFFFF" stroke="none">
<path d="M896 2069 c-263 -34 -493 -162 -656 -366 -67 -83 -146 -222 -173
-303 -48 -143 -73 -367 -57 -509 29 -268 127 -467 327 -668 124 -123 143 -132
76 -31 -69 103 -112 189 -151 300 -53 149 -65 238 -60 448 4 164 8 195 32 273
60 201 173 361 340 484 78 57 114 76 212 107 227 72 439 55 659 -55 l80 -40
102 48 c56 26 102 50 102 53 1 11 -150 104 -244 150 -118 58 -236 94 -360 109
-101 12 -130 12 -229 0z"/>
<path d="M1795 1423 c-93 -30 -259 -83 -367 -116 -108 -34 -195 -64 -192 -66
2 -3 76 -28 164 -57 l160 -52 123 40 c194 64 176 62 191 25 49 -120 68 -479
33 -621 -43 -171 -117 -304 -238 -428 l-86 -87 75 52 c229 157 392 411 431
672 6 39 13 86 17 105 8 47 8 96 0 150 -4 25 -12 79 -18 120 -11 82 -48 224
-73 283 -10 24 -21 37 -33 36 -9 -1 -93 -26 -187 -56z"/>
<path d="M290 794 l0 -246 158 4 c154 3 160 4 200 31 56 37 84 94 90 183 5 81
-15 164 -50 209 -41 53 -87 65 -250 65 l-148 0 0 -246z m275 114 c52 -60 37
-227 -22 -249 -13 -5 -44 -9 -69 -9 l-44 0 0 146 0 146 57 -4 c45 -4 61 -10
78 -30z"/>
<path d="M775 1019 c4 -11 44 -120 90 -242 l84 -222 85 -3 c54 -2 86 1 86 7 0
6 38 113 85 238 47 125 85 231 85 235 0 5 -31 8 -69 8 l-69 0 -21 -62 c-11
-35 -36 -116 -56 -181 -20 -65 -39 -116 -44 -113 -4 3 -31 84 -61 180 l-54
176 -74 0 c-70 0 -73 -1 -67 -21z"/>
<path d="M1366 903 c-4 -76 -6 -186 -5 -245 l1 -108 74 0 74 0 0 100 0 100 29
0 c35 0 51 -20 105 -127 l36 -73 80 0 c44 0 80 3 80 8 -1 25 -91 170 -117 188
l-31 21 36 17 c49 22 74 59 79 115 5 55 -11 88 -56 118 -32 22 -43 23 -206 23
l-172 0 -7 -137z m288 25 c21 -30 20 -44 -4 -68 -16 -16 -33 -20 -80 -20 l-60
0 0 55 0 55 64 0 c56 0 67 -3 80 -22z"/>
</g>
</svg>
